<svg width="262" height="135" viewBox="0 0 262 135" fill="none" xmlns="http://www.w3.org/2000/svg">
<g clip-path="url(#clip0_135_268)">
<path d="M44.9534 18.8179L10.895 38.6266C5.86687 41.551 2.77344 46.9286 2.77344 52.7453V72.6755V92.6057C2.77344 98.4224 5.86689 103.8 10.895 106.724L27.9767 116.659L44.9534 126.533C50.0297 129.486 56.3003 129.486 61.3766 126.533L95.435 106.724C100.463 103.8 103.557 98.4224 103.557 92.6057V52.7453C103.557 46.9286 100.463 41.551 95.435 38.6266L61.3766 18.8179C56.3003 15.8654 50.0297 15.8654 44.9534 18.8179Z" fill="black" stroke="white" stroke-width="5.43375"/>
<path d="M44.9534 18.8179L10.895 38.6266C5.86687 41.551 2.77344 46.9286 2.77344 52.7453V72.6755V92.6057C2.77344 98.4224 5.86689 103.8 10.895 106.724L27.9767 116.659L44.9534 126.533C50.0297 129.486 56.3003 129.486 61.3766 126.533L95.435 106.724C100.463 103.8 103.557 98.4224 103.557 92.6057V52.7453C103.557 46.9286 100.463 41.551 95.435 38.6266L61.3766 18.8179C56.3003 15.8654 50.0297 15.8654 44.9534 18.8179Z" stroke="white" stroke-width="5.43375"/>
<path d="M86.3481 76.2956C86.1112 75.3301 85.1365 74.7394 84.1711 74.9762L68.4376 78.8363C67.4722 79.0732 66.8815 80.0479 67.1184 81.0133C67.3552 81.9788 68.3299 82.5696 69.2955 82.3326L83.2808 78.9014L86.7118 92.8869C86.9487 93.8522 87.9234 94.4429 88.8889 94.2061C89.8543 93.9693 90.445 92.9946 90.2082 92.029L86.3481 76.2956ZM53.175 41.3995L54.12 42.9314L56.6689 41.359L54.0843 39.8461L53.175 41.3995ZM26.55 57.8245L25.605 56.2925L24.75 56.8199V57.8245H26.55ZM26.55 85.7245H24.75V86.2166L25.0004 86.6404L26.55 85.7245ZM52.23 39.8675L25.605 56.2925L27.495 59.3564L54.12 42.9314L52.23 39.8675ZM54.5779 129.74L86.1394 77.6573L83.0605 75.7916L51.4992 127.874L54.5779 129.74ZM30.7407 30.3529L52.2657 42.9529L54.0843 39.8461L32.5593 27.2461L30.7407 30.3529ZM24.75 57.8245V85.7245H28.35V57.8245H24.75ZM25.0004 86.6404L50.4592 129.717L53.5585 127.885L28.0996 84.8086L25.0004 86.6404ZM51.4992 127.874C51.9693 127.098 53.097 127.104 53.5585 127.885L50.4592 129.717C51.3823 131.279 53.6377 131.291 54.5779 129.74L51.4992 127.874Z" fill="white"/>
<path d="M46.8318 41.0343C46.7724 43.5246 49.5318 45.6102 52.9949 45.6928C56.4581 45.7753 59.3136 43.8235 59.373 41.3332C59.4324 38.843 56.673 36.7573 53.2099 36.6748C49.7467 36.5922 46.8911 38.544 46.8318 41.0343Z" fill="white"/>
<path d="M22.9855 81.8431C25.0335 80.4252 28.2923 81.5847 30.2641 84.4328C32.236 87.281 32.1743 90.7393 30.1263 92.1572C28.0782 93.5752 24.8194 92.4157 22.8476 89.5676C20.8757 86.7194 20.9374 83.2611 22.9855 81.8431Z" fill="white"/>
<path fill-rule="evenodd" clip-rule="evenodd" d="M53.1839 68.8221L8.68534 42.9414L6.33594 46.9809L50.8473 72.8691V127.95H55.5204V72.8691L100.032 46.9809L97.6824 42.9414L53.1839 68.8221Z" fill="white"/>
<path fill-rule="evenodd" clip-rule="evenodd" d="M28.3516 25.5749V22.5622C28.3516 21.568 29.1575 20.7622 30.1516 20.7622C31.1458 20.7622 31.9516 21.568 31.9516 22.5622V25.5749H28.3516ZM30.1516 18.8683C29.1575 18.8683 28.3516 18.0625 28.3517 17.0683V11.0429C28.3517 10.0488 29.1575 9.24287 30.1517 9.24287C31.1458 9.24287 31.9517 10.0488 31.9517 11.0429V17.0683C31.9516 18.0625 31.1458 18.8683 30.1516 18.8683ZM30.1517 7.34906C29.1575 7.34906 28.3517 6.54317 28.3517 5.54906V2.53633C28.3517 1.54222 29.1575 0.736325 30.1517 0.736328C31.1458 0.736334 31.9517 1.54222 31.9517 2.53634V5.54908C31.9517 6.54319 31.1458 7.34906 30.1517 7.34906Z" fill="white"/>
</g>
<g clip-path="url(#clip1_135_268)">
<path d="M262 61V100H252.533L238.413 76.3771V100H229V61H238.467L252.587 84.79V61H262Z" fill="white"/>
<path d="M199.1 79.0798C197.547 78.3151 196.29 77.2773 195.329 75.9664C194.405 74.6191 193.943 72.9622 193.943 70.9958C193.943 69.1751 194.442 67.5182 195.44 66.0252C196.438 64.4958 197.972 63.2759 200.042 62.3655C202.113 61.4552 204.756 61 207.972 61C211.152 61 213.776 61.4734 215.846 62.4202C217.954 63.3305 219.507 64.5504 220.505 66.0798C221.54 67.5728 222.057 69.2115 222.057 70.9958C222.057 72.9258 221.558 74.5644 220.56 75.9118C219.599 77.2591 218.379 78.3151 216.9 79.0798C218.822 79.9538 220.32 81.1737 221.392 82.7395C222.464 84.3053 223 86.1625 223 88.3109C223 90.8235 222.316 92.9536 220.948 94.7017C219.618 96.4495 217.806 97.7788 215.514 98.689C213.259 99.5629 210.745 100 207.972 100C205.2 100 202.686 99.5629 200.431 98.689C198.176 97.7788 196.364 96.4495 194.996 94.7017C193.665 92.9536 193 90.8235 193 88.3109C193 86.1625 193.517 84.3053 194.553 82.7395C195.625 81.1737 197.141 79.9538 199.1 79.0798ZM212.408 72.416C212.408 71.0322 212.002 70.0308 211.188 69.4118C210.375 68.7563 209.303 68.4286 207.972 68.4286C206.641 68.4286 205.569 68.7563 204.756 69.4118C203.98 70.0308 203.592 71.0322 203.592 72.416C203.592 73.7633 203.998 74.8193 204.812 75.584C205.625 76.3123 206.679 76.6765 207.972 76.6765C209.266 76.6765 210.32 76.3123 211.133 75.584C211.983 74.8193 212.408 73.7633 212.408 72.416ZM207.972 83.0126C206.9 83.0126 205.976 83.2129 205.199 83.6134C204.423 83.9776 203.832 84.5238 203.425 85.2521C203.019 85.944 202.815 86.7997 202.815 87.8193C202.815 89.2031 203.222 90.3502 204.035 91.2604C204.885 92.1343 206.198 92.5714 207.972 92.5714C209.747 92.5714 211.059 92.1163 211.909 91.2058C212.76 90.2955 213.185 89.1667 213.185 87.8193C213.185 86.7997 212.981 85.944 212.575 85.2521C212.168 84.5238 211.577 83.9776 210.801 83.6134C210.024 83.2129 209.081 83.0126 207.972 83.0126Z" fill="white"/>
<path d="M174.945 61C177.833 61 180.407 61.5884 182.667 62.7652C184.926 63.942 186.704 65.5601 188 67.6195C189.333 69.6789 190 72.0693 190 74.7907C190 76.7398 189.593 78.744 188.778 80.8034C188 82.8628 186.759 85.0325 185.056 87.3126L176.822 98.3089C176.025 99.3733 174.773 100 173.443 100C169.944 100 167.965 95.9878 170.093 93.211L176.222 85.2164L177.967 83.1703C179.673 81.1688 181.951 82.5145 180 84.2786C177.926 86.1542 175.426 87.0919 172.5 87.0919C170.241 87.0919 168.167 86.6139 166.278 85.6577C164.389 84.6648 162.87 83.2306 161.722 81.355C160.574 79.4795 160 77.2178 160 74.57C160 71.8119 160.685 69.4215 162.056 67.3989C163.426 65.3395 165.241 63.7581 167.5 62.6549C169.759 61.5516 172.241 61 174.945 61ZM180.222 74.5149C180.222 73.4116 180 72.4738 179.555 71.7016C179.148 70.8925 178.537 70.2673 177.722 69.826C176.944 69.3847 176.019 69.1641 174.945 69.1641C173.871 69.1641 172.944 69.3847 172.167 69.826C171.389 70.2673 170.796 70.8925 170.389 71.7016C169.982 72.4738 169.778 73.4116 169.778 74.5149C169.778 75.5813 169.982 76.5191 170.389 77.3281C170.796 78.1004 171.389 78.7072 172.167 79.1485C172.944 79.5898 173.871 79.8105 174.945 79.8105C176.019 79.8105 176.944 79.5898 177.722 79.1485C178.537 78.7072 179.148 78.1004 179.555 77.3281C180 76.5191 180.222 75.5813 180.222 74.5149Z" fill="#DA7C70"/>
<path d="M174.947 61.1953C177.807 61.1953 180.356 61.7778 182.592 62.9429C184.829 64.1079 186.589 65.7098 187.872 67.7486C189.192 69.7875 189.852 72.1539 189.852 74.8481C189.852 76.7777 189.449 78.7619 188.642 80.8007C187.872 82.8395 186.644 84.9875 184.957 87.2448L176.806 98.1313C176.017 99.1849 174.777 99.8053 173.461 99.8053C169.997 99.8053 168.037 95.8333 170.145 93.0844L176.212 85.1696L177.939 83.1439C179.629 81.1624 181.884 82.4946 179.952 84.2412C177.899 86.0979 175.424 87.0263 172.527 87.0263C170.291 87.0263 168.237 86.553 166.367 85.6065C164.497 84.6234 162.994 83.2035 161.857 81.3468C160.721 79.49 160.152 77.2509 160.152 74.6296C160.152 71.8991 160.831 69.5326 162.187 67.5302C163.544 65.4914 165.341 63.9259 167.577 62.8336C169.814 61.7414 172.271 61.1953 174.947 61.1953ZM180.172 74.575C180.172 73.4828 179.952 72.5544 179.512 71.7899C179.109 70.9889 178.504 70.37 177.697 69.9331C176.927 69.4962 176.011 69.2778 174.947 69.2778C173.884 69.2778 172.967 69.4962 172.197 69.9331C171.427 70.37 170.841 70.9889 170.437 71.7899C170.034 72.5544 169.832 73.4828 169.832 74.575C169.832 75.6308 170.034 76.5592 170.437 77.3602C170.841 78.1247 171.427 78.7254 172.197 79.1623C172.967 79.5992 173.884 79.8177 174.947 79.8177C176.011 79.8177 176.927 79.5992 177.697 79.1623C178.504 78.7254 179.109 78.1247 179.512 77.3602C179.952 76.5592 180.172 75.6308 180.172 74.575Z" fill="#FF6E5A"/>
<path d="M154 61V100H144.533L130.413 76.3771V100H121V61H130.467L144.587 84.79V61H154Z" fill="white"/>
</g>
<defs>
<clipPath id="clip0_135_268">
<rect width="106.35" height="134.55" fill="white"/>
</clipPath>
<clipPath id="clip1_135_268">
<rect width="141" height="39" fill="white" transform="translate(121 61)"/>
</clipPath>
</defs>
</svg>
